<svg id="Layer_1" enable-background="new 0 0 512 512" height="512" viewBox="0 0 512 512" width="512" xmlns="http://www.w3.org/2000/svg"><path d="m477.729 157.044h-53.666v-99.88c0-21.492-17.485-38.977-38.977-38.977h-346.109c-21.492 0-38.977 17.485-38.977 38.977v261.356c0 21.492 17.485 38.977 38.977 38.977h23.018v59.932c0 6.096 3.464 11.662 8.933 14.354 2.241 1.104 4.659 1.646 7.065 1.646 3.466 0 6.907-1.125 9.759-3.319l80.466-61.908v30.956c0 18.897 15.375 34.272 34.272 34.272h160.283l74.171 57.065c2.853 2.194 6.293 3.319 9.759 3.319 2.406 0 4.824-.542 7.065-1.646 5.469-2.692 8.933-8.259 8.933-14.354v-44.384h15.028c18.897 0 34.271-15.375 34.271-34.272v-207.84c0-18.899-15.374-34.274-34.271-34.274zm-383.735 227.887v-43.435c0-8.836-7.163-16-16-16h-39.017c-3.782 0-6.977-3.195-6.977-6.977v-261.355c0-3.782 3.194-6.977 6.977-6.977h346.109c3.782 0 6.977 3.195 6.977 6.977v261.356c0 3.782-3.194 6.977-6.977 6.977h-208.398c-3.529 0-6.959 1.167-9.757 3.319zm386.006 14.226c0 1.21-1.062 2.272-2.271 2.272h-31.029c-8.837 0-16 7.164-16 16v27.887l-52.729-40.568c-2.797-2.152-6.227-3.319-9.756-3.319h-165.726c-1.211 0-2.272-1.062-2.272-2.272v-41.66h184.869c21.491 0 38.977-17.485 38.977-38.977v-129.476h53.666c1.21 0 2.271 1.062 2.271 2.272zm-303.338-241.906c-.034 0-.067 0-.102 0-8.836-.055-15.955-7.263-15.9-16.099.13-20.719 9.271-37.516 25.08-46.082 16.388-8.88 37.711-7.716 54.323 2.967 15.97 10.269 24.422 27.051 23.229 46.087-.638 20.042-13.777 31.777-24.348 41.219-12.127 10.831-19.552 18.265-19.408 33.923.081 8.836-7.016 16.065-15.853 16.146-.049 0-.1.001-.149.001-8.769 0-15.916-7.066-15.996-15.853-.284-30.954 17.271-46.634 30.09-58.083 9.613-8.586 13.543-12.663 13.684-18.489.006-.237.017-.475.033-.712.643-9.34-4.316-14.576-8.589-17.324-6.73-4.328-15.683-5.046-21.771-1.747-5.468 2.963-8.27 9.068-8.325 18.146-.056 8.802-7.208 15.9-15.998 15.9zm43.696 119.173c0 8.836-7.163 16-16 16h-1.644c-8.837 0-16-7.164-16-16s7.163-16 16-16h1.644c8.837 0 16 7.164 16 16z"/></svg>