<?xml version="1.0" encoding="utf-8"?>
<svg version="1.1" id="svg168" width="682.66669" height="682.66669" viewBox="0 0 682.66669 682.66669" xmlns="http://www.w3.org/2000/svg">
  <defs id="defs172">
    <clipPath clipPathUnits="userSpaceOnUse" id="clipPath182">
      <path d="M 0,512 H 512 V 0 H 0 Z" id="path180"/>
    </clipPath>
  </defs>
  <g id="g174" transform="matrix(1.3333333,0,0,-1.3333333,0,682.66667)">
    <g id="g176">
      <g id="g178" clip-path="url(#clipPath182)">
        <g id="g184" transform="translate(136,91)">
          <path d="m 0,0 c 0,-41.421 -33.579,-76 -75,-76 h -61 c 24.853,0 46,20.147 46,45 V 0 c 0,24.853 20.147,45 45,45 C -20.147,45 0,24.853 0,0 Z" style="fill: none; stroke-width: 30; stroke-linecap: butt; stroke-linejoin: miter; stroke-miterlimit: 10; stroke-dasharray: none; stroke-opacity: 1; stroke: rgb(255, 255, 255);" id="path186"/>
        </g>
        <g id="g188" transform="translate(392.0664,319.6396)">
          <path d="m 0,0 c -11.716,-11.716 -30.711,-11.716 -42.427,0 -11.716,11.716 -11.716,30.711 0,42.426 11.716,11.716 30.711,11.716 42.427,0 C 11.716,30.711 11.716,11.716 0,0 Z" style="fill: none; stroke-width: 30; stroke-linecap: butt; stroke-linejoin: miter; stroke-miterlimit: 10; stroke-dasharray: none; stroke-opacity: 1; stroke: rgb(255, 255, 255);" id="path190"/>
        </g>
        <g id="g192" transform="translate(283.9199,379.6757)">
          <path d="m 0,0 c 4.288,-16.004 -5.21,-32.454 -21.214,-36.742 -16.004,-4.289 -32.454,5.209 -36.742,21.213 -4.288,16.004 5.209,32.454 21.213,36.742 C -20.739,25.501 -4.289,16.004 0,0 Z" style="fill: none; stroke-width: 30; stroke-linecap: butt; stroke-linejoin: miter; stroke-miterlimit: 10; stroke-dasharray: none; stroke-opacity: 1; stroke: rgb(255, 255, 255);" id="path194"/>
        </g>
        <g id="g196" transform="translate(346.0361,147.8535)">
          <path d="m 0,0 c 4.288,-16.004 -5.209,-32.454 -21.213,-36.742 -16.004,-4.289 -32.454,5.209 -36.743,21.213 -4.288,16.004 5.21,32.454 21.214,36.742 C -20.738,25.501 -4.288,16.004 0,0 Z" style="fill: none; stroke-width: 30; stroke-linecap: butt; stroke-linejoin: miter; stroke-miterlimit: 10; stroke-dasharray: none; stroke-opacity: 1; stroke: rgb(255, 255, 255);" id="path198"/>
        </g>
        <g id="g200" transform="translate(177.8535,316.0361)">
          <path d="M 0,0 C 16.004,-4.288 25.501,-20.739 21.213,-36.742 16.925,-52.746 0.475,-62.244 -15.529,-57.956 -31.533,-53.667 -41.031,-37.217 -36.742,-21.213 -32.454,-5.209 -16.004,4.288 0,0 Z" style="fill: none; stroke-width: 30; stroke-linecap: butt; stroke-linejoin: miter; stroke-miterlimit: 10; stroke-dasharray: none; stroke-opacity: 1; stroke: rgb(255, 255, 255);" id="path202"/>
        </g>
        <g id="g204" transform="translate(409.6758,253.9194)">
          <path d="M 0,0 C 16.004,-4.288 25.501,-20.738 21.213,-36.742 16.925,-52.746 0.475,-62.244 -15.529,-57.956 -31.533,-53.667 -41.03,-37.217 -36.742,-21.213 -32.454,-5.209 -16.004,4.288 0,0 Z" style="fill: none; stroke-width: 30; stroke-linecap: butt; stroke-linejoin: miter; stroke-miterlimit: 10; stroke-dasharray: none; stroke-opacity: 1; stroke: rgb(255, 255, 255);" id="path206"/>
        </g>
        <g id="g208" transform="translate(120.1182,198.3704)">
          <path d="m 0,0 c 112.201,-12.75 109.495,-85.774 103.792,-111.301 -3.727,-16.675 5.695,-33.899 22.475,-37.122 133.21,-25.587 250.581,78.979 250.615,206.053 0.014,54.476 -21.634,108.944 -64.96,150.906 C 194.068,322.679 57.004,250.925 -3.547,183.206" style="fill: none; stroke-width: 30; stroke-linecap: butt; stroke-linejoin: miter; stroke-miterlimit: 10; stroke-dasharray: none; stroke-opacity: 1; stroke: rgb(255, 255, 255);" id="path210"/>
        </g>
        <g id="g212" transform="translate(116.3877,128.1599)">
          <path d="m 0,0 0.567,7.84 c 2.558,35.328 4.045,76.234 4.045,120 0,132.548 -13.43,241 -30,241 -16.569,0 -30,-108.452 -30,-241 0,-43.766 1.487,-84.672 4.045,-120 L -50.775,0" style="fill: none; stroke-width: 30; stroke-linecap: butt; stroke-linejoin: miter; stroke-miterlimit: 10; stroke-dasharray: none; stroke-opacity: 1; stroke: rgb(255, 255, 255);" id="path214"/>
        </g>
        <g id="g216" transform="translate(61.2354,226)">
          <path d="M 0,0 H 59.529" style="fill: none; stroke-width: 30; stroke-linecap: butt; stroke-linejoin: miter; stroke-miterlimit: 10; stroke-dasharray: none; stroke-opacity: 1; stroke: rgb(255, 255, 255);" id="path218"/>
        </g>
      </g>
    </g>
  </g>
</svg>