<?xml version="1.0" encoding="utf-8"?>
<svg id="Capa_1" enable-background="new 0 0 512 512" height="512" viewBox="0 0 512 512" width="512" xmlns="http://www.w3.org/2000/svg">
  <g>
    <path d="m447 74.851h-382c-35.841 0-65 29.159-65 65v232.297c0 35.841 29.159 65 65 65h382c35.841 0 65-29.159 65-65v-232.297c0-35.841-29.16-65-65-65zm35 297.297c0 19.299-15.701 35-35 35h-382c-19.299 0-35-15.701-35-35v-232.297c0-19.299 15.701-35 35-35h382c19.299 0 35 15.701 35 35z" style="fill: rgb(255, 255, 255);"/>
    <path d="m143.447 148.416-78.423 115.604 11.288 23.04h30.189v70.523h101.666v-70.523h30.188l11.288-23.04-78.424-115.604zm34.72 108.644v70.523h-41.666v-70.523h-30.504l51.337-75.675 51.337 75.675z" style="fill: rgb(255, 255, 255);"/>
  </g>
</svg>