<?xml version="1.0" standalone="no"?>
<!DOCTYPE svg PUBLIC "-//W3C//DTD SVG 20010904//EN"
 "http://www.w3.org/TR/2001/REC-SVG-20010904/DTD/svg10.dtd">
<svg version="1.0" xmlns="http://www.w3.org/2000/svg"
 width="200.000000pt" height="200.000000pt" viewBox="0 0 200.000000 200.000000"
 preserveAspectRatio="xMidYMid meet">

<g transform="translate(0.000000,200.000000) scale(0.100000,-0.100000)"
fill="#000000" stroke="none">
<path d="M1028 1565 c3 -30 -1 -54 -12 -70 -16 -25 -16 -25 12 -25 26 0 28 3
24 30 -4 25 -1 30 16 30 49 0 66 -24 37 -53 -12 -13 -11 -15 13 -19 27 -4 27
-3 28 55 1 35 6 62 13 67 9 5 8 9 -4 14 -28 10 -51 8 -38 -5 20 -20 3 -49 -28
-49 -24 0 -29 4 -29 25 0 14 5 25 11 25 5 0 7 5 4 10 -3 6 -16 10 -28 10 -20
0 -22 -4 -19 -45z"/>
<path d="M855 1550 c-11 -5 -14 -9 -7 -9 7 -1 12 -14 12 -33 l0 -32 -28 27
c-47 45 -64 32 -20 -14 42 -44 47 -76 10 -72 -23 3 -30 -11 -11 -23 7 -4 -7
-18 -34 -35 -67 -41 -124 -106 -160 -179 -30 -62 -32 -71 -32 -180 0 -107 2
-119 29 -175 54 -109 149 -192 265 -230 85 -28 217 -18 301 23 108 52 186 142
225 261 28 85 18 217 -23 302 -40 84 -116 160 -201 202 -61 30 -73 32 -171 32
-58 0 -116 -3 -130 -7 l-26 -7 9 62 c5 34 13 70 18 80 10 19 5 20 -26 7z m258
-161 c41 -11 47 -23 17 -39 -11 -6 -20 -17 -20 -25 0 -12 16 -15 78 -15 73 0
80 -2 106 -29 23 -24 27 -35 21 -60 -8 -36 -54 -66 -89 -57 -12 3 -32 -1 -44
-10 -20 -14 -24 -13 -52 20 -24 27 -44 37 -86 46 -30 7 -58 18 -61 26 -8 21
-25 17 -18 -5 3 -10 1 -31 -5 -46 -11 -28 -11 -28 -78 -20 -37 5 -79 8 -94 8
-17 0 -28 6 -31 18 -3 10 -17 23 -31 29 -31 11 -33 33 -6 60 16 16 33 20 80
20 61 0 68 6 50 39 -9 18 3 29 50 44 28 10 175 7 213 -4z m-275 -46 c2 -9 -8
-13 -35 -13 -36 1 -37 1 -18 16 22 17 46 15 53 -3z m376 2 c18 -14 15 -15 -35
-14 -30 1 -46 3 -36 6 9 2 17 9 17 14 0 14 33 10 54 -6z m-516 -200 c-3 -25
-8 -30 -42 -37 -21 -5 -41 -6 -44 -3 -7 6 17 63 47 110 l25 40 8 -40 c5 -22 8
-53 6 -70z m663 44 c23 -46 17 -58 -31 -59 -14 0 -49 -11 -78 -25 -41 -19 -58
-22 -73 -15 -10 6 -19 14 -19 19 0 18 40 42 67 40 45 -4 90 21 97 53 3 15 8
28 11 28 2 0 14 -19 26 -41z m-619 -29 c2 -16 1 -35 -4 -42 -6 -10 -8 -9 -8 3
0 9 -3 31 -7 49 -4 22 -3 31 4 27 6 -4 13 -20 15 -37z m252 -7 c-7 -55 -19
-71 -54 -75 -21 -3 -25 1 -25 22 0 20 6 26 30 30 25 4 30 10 33 38 2 17 7 32
12 32 6 0 7 -21 4 -47z m113 26 c8 -7 21 -25 29 -41 l15 -28 -66 0 -65 0 0 46
0 47 36 -6 c20 -3 42 -12 51 -18z m-322 -19 c-3 -5 -11 -10 -16 -10 -6 0 -7 5
-4 10 3 6 11 10 16 10 6 0 7 -4 4 -10z m112 -28 c-25 -27 -21 -49 13 -74 38
-28 40 -69 5 -103 -30 -31 -41 -31 -49 0 -3 13 -15 29 -25 35 -17 8 -18 18
-14 72 7 74 15 88 56 88 29 0 29 -1 14 -18z m497 -43 c8 -40 8 -128 0 -167
l-6 -31 -52 29 c-34 20 -54 39 -60 57 -5 16 -19 42 -32 60 l-24 32 22 12 c31
17 98 38 124 38 16 1 23 -7 28 -30z m-610 6 c-7 -16 -24 -21 -24 -6 0 8 7 13
27 20 1 1 0 -6 -3 -14z m-76 -17 c7 -7 12 -27 12 -45 l0 -33 -32 20 c-18 11
-45 20 -60 20 -32 0 -38 23 -10 39 24 14 75 14 90 -1z m342 -11 c0 -21 -4 -23
-30 -19 -30 4 -30 5 -14 23 23 26 44 24 44 -4z m113 -11 c4 -10 1 -13 -9 -9
-15 6 -19 23 -5 23 5 0 11 -7 14 -14z m-391 -48 c-9 -9 -12 -7 -12 12 0 19 3
21 12 12 9 -9 9 -15 0 -24z m-89 -5 c23 -12 26 -17 17 -34 -6 -11 -9 -28 -6
-37 4 -12 -5 -29 -28 -51 l-34 -33 -13 23 c-6 13 -14 54 -17 92 l-5 68 29 -7
c16 -4 41 -13 57 -21z m325 5 c-7 -19 -38 -22 -38 -4 0 10 9 16 21 16 12 0 19
-5 17 -12z m101 -91 c23 -19 48 -28 92 -33 l61 -7 -6 -30 c-3 -16 -6 -40 -6
-53 0 -13 -4 -24 -10 -24 -5 0 -10 14 -10 31 0 40 -23 65 -40 44 -17 -20 -118
-20 -146 0 -27 18 -34 11 -34 -37 0 -50 -18 -49 -26 1 -7 41 -28 61 -38 35 -7
-18 -60 -18 -75 -1 -8 11 -1 19 37 38 26 13 51 34 57 47 6 13 19 22 32 22 23
0 53 24 53 43 1 7 7 -2 14 -18 7 -17 28 -43 45 -58z m-272 37 c9 -23 -15 -35
-67 -32 -38 3 -45 6 -48 26 -3 21 0 22 53 22 42 0 57 -4 62 -16z m510 -62 l32
-24 -20 -41 c-32 -62 -83 -121 -136 -156 l-48 -32 -6 58 c-5 41 -3 60 6 68 7
5 15 17 17 25 3 9 8 1 12 -17 7 -29 12 -33 41 -33 40 0 45 13 45 118 0 79 -2
78 57 34z m-576 -34 c0 -24 6 -59 13 -78 11 -31 17 -35 47 -35 30 0 34 3 37
28 3 21 8 27 19 23 8 -3 23 -6 33 -6 21 0 34 -38 19 -56 -6 -7 -42 -25 -81
-40 -62 -23 -73 -25 -95 -13 -29 16 -92 84 -113 124 -14 26 -13 28 23 61 25
23 47 34 67 34 29 0 30 -2 31 -42z m94 32 c-3 -5 -14 -10 -23 -9 -14 0 -13 2
3 9 27 11 27 11 20 0z m-25 -81 c0 -59 -26 -51 -39 11 -6 28 -11 53 -11 56 0
2 11 -3 25 -12 20 -13 25 -25 25 -55z m220 -25 c0 -23 29 -28 49 -10 17 16 19
15 32 -16 7 -18 14 -55 14 -82 0 -50 0 -50 -40 -62 -86 -26 -245 -11 -299 29
-18 13 -14 16 44 35 71 25 99 46 101 76 1 17 2 18 6 4 3 -12 14 -18 33 -18 28
0 40 15 40 51 0 11 5 17 10 14 6 -3 10 -13 10 -21z"/>
<path d="M1030 1249 c0 -11 5 -17 10 -14 6 3 10 13 10 21 0 8 -4 14 -10 14 -5
0 -10 -9 -10 -21z"/>
<path d="M1097 1254 c-4 -4 -7 -14 -7 -23 0 -11 3 -12 11 -4 6 6 10 16 7 23
-2 6 -7 8 -11 4z"/>
<path d="M912 1209 c2 -7 10 -15 17 -17 8 -3 12 1 9 9 -2 7 -10 15 -17 17 -8
3 -12 -1 -9 -9z"/>
<path d="M1145 1209 c-11 -17 1 -21 15 -4 8 9 8 15 2 15 -6 0 -14 -5 -17 -11z"/>
<path d="M730 950 c0 -5 5 -10 10 -10 6 0 10 5 10 10 0 6 -4 10 -10 10 -5 0
-10 -4 -10 -10z"/>
<path d="M770 950 c0 -5 5 -10 10 -10 6 0 10 5 10 10 0 6 -4 10 -10 10 -5 0
-10 -4 -10 -10z"/>
<path d="M1215 1511 c-3 -5 -1 -12 4 -15 5 -4 11 -1 13 6 2 6 12 9 21 5 30
-11 9 -33 -28 -29 -26 3 -36 0 -41 -13 -8 -20 6 -35 34 -38 12 0 24 -7 26 -14
3 -7 10 -13 16 -13 6 0 9 4 5 9 -3 5 2 25 11 45 14 29 15 38 4 51 -14 17 -55
20 -65 6z m30 -51 c3 -6 -1 -13 -10 -16 -19 -8 -30 0 -20 15 8 14 22 14 30 1z"/>
<path d="M1372 1481 c-7 -14 -27 -42 -46 -62 -26 -27 -32 -39 -23 -48 13 -13
31 -15 23 -3 -3 5 15 33 40 63 48 59 50 64 31 72 -7 3 -18 -7 -25 -22z"/>
<path d="M676 1474 c-16 -15 -13 -34 4 -34 5 0 7 6 4 14 -7 18 15 31 29 17 8
-8 4 -18 -13 -36 -23 -24 -23 -26 -7 -43 14 -14 21 -14 35 -4 9 6 28 17 42 24
17 8 20 12 10 15 -8 2 -23 17 -32 33 -19 33 -48 39 -72 14z m64 -48 c0 -16
-18 -31 -27 -22 -8 8 5 36 17 36 5 0 10 -6 10 -14z"/>
<path d="M560 1392 c0 -13 4 -21 9 -18 4 3 19 -6 31 -19 27 -29 52 -32 71 -8
12 15 12 16 -4 10 -25 -9 -70 21 -64 43 3 13 -1 17 -19 16 -18 -1 -24 -7 -24
-24z"/>
<path d="M1416 1383 c-11 -12 -6 -22 8 -17 18 7 31 -15 17 -29 -7 -7 -16 -6
-29 6 -24 22 -51 22 -59 0 -4 -10 2 -23 15 -34 12 -9 22 -22 22 -28 0 -17 6
-14 46 23 31 28 35 36 25 53 -11 22 -35 35 -45 26z m-1 -52 c3 -5 1 -13 -5
-16 -15 -9 -43 3 -35 15 8 13 32 13 40 1z"/>
<path d="M465 1316 c-34 -52 7 -82 66 -48 32 19 39 20 49 7 17 -20 -6 -51 -25
-35 -17 14 -32 -7 -17 -22 15 -15 40 -3 53 26 23 50 -15 81 -63 53 -39 -22
-60 -22 -56 1 3 11 12 16 27 14 14 -1 21 2 19 10 -8 23 -36 20 -53 -6z"/>
<path d="M1500 1268 c-30 -15 -63 -26 -72 -24 -10 2 -18 1 -18 -3 0 -12 29
-47 30 -35 0 6 26 21 58 34 66 27 80 37 67 48 -6 4 -35 -5 -65 -20z"/>
</g>
</svg>
