<svg id="Layer_1" height="512" viewBox="0 0 32 32" width="512" xmlns="http://www.w3.org/2000/svg" data-name="Layer 1"><path d="m26.707 9.293-7-7a1 1 0 0 0 -.707-.293h-11a3 3 0 0 0 -3 3v22a3 3 0 0 0 3 3h16a3 3 0 0 0 3-3v-17a1 1 0 0 0 -.293-.707zm-6.707-3.879 3.586 3.586h-2.586a1 1 0 0 1 -1-1zm4 22.586h-16a1 1 0 0 1 -1-1v-22a1 1 0 0 1 1-1h10v4a3 3 0 0 0 3 3h4v16a1 1 0 0 1 -1 1z"/><path d="m16 23a1 1 0 0 1 -1-1 4.626 4.626 0 0 1 1.793-3.207c.621-.621 1.207-1.207 1.207-1.793a2 2 0 0 0 -4 0 1 1 0 0 1 -2 0 4 4 0 0 1 8 0 4.626 4.626 0 0 1 -1.793 3.207c-.621.621-1.207 1.207-1.207 1.793a1 1 0 0 1 -1 1z"/><circle cx="16" cy="25" r="1"/></svg>