<?xml version="1.0" encoding="utf-8"?>
<svg height="512" viewBox="0 0 32 32" width="512" xmlns="http://www.w3.org/2000/svg">
  <g id="Layer_2" data-name="Layer 2">
    <path d="m31.2837 5.3867a5.0648 5.0648 0 0 0 -4.6709-4.6709 150.513 150.513 0 0 0 -21.2256 0 5.0648 5.0648 0 0 0 -4.6709 4.6709 150.3629 150.3629 0 0 0 0 21.2256 5.0648 5.0648 0 0 0 4.6709 4.6709 150.1233 150.1233 0 0 0 21.2256 0 5.0648 5.0648 0 0 0 4.6709-4.6709 150.3629 150.3629 0 0 0 0-21.2256zm-1.9951 21.084a3.0172 3.0172 0 0 1 -2.8174 2.8174 148.1257 148.1257 0 0 1 -20.9424 0 3.0172 3.0172 0 0 1 -2.8174-2.8174 148.2754 148.2754 0 0 1 0-20.9424 3.0173 3.0173 0 0 1 2.8174-2.8174 148.1406 148.1406 0 0 1 20.9424 0 3.0173 3.0173 0 0 1 2.8174 2.8174 148.2754 148.2754 0 0 1 0 20.9424z" style="fill: rgb(255, 255, 255);"/>
  </g>
  <g id="Layer_1" data-name="Layer 1">
    <path d="m25.33 13.76-7.99-7.24a1.9807 1.9807 0 0 0 -2.67 0l-8 7.24h-.01a2.05 2.05 0 0 0 -.66 1.51v8.71a2.0166 2.0166 0 0 0 2 2.02h4a2.0166 2.0166 0 0 0 2-2.02v-3.08l4 .02v3.06a2.0166 2.0166 0 0 0 2 2.02h4a2.0166 2.0166 0 0 0 2-2.02v-8.71a2.0232 2.0232 0 0 0 -.67-1.51zm-1.33 10.24-4-.02v-3.06a2.0166 2.0166 0 0 0 -2-2.02h-4a2.0166 2.0166 0 0 0 -2 2.02v3.08l-4-.02v-8.71c0-.01 0-.02.01-.02l7.98-7.25 8.01 7.27z" style="fill: rgb(255, 255, 255);"/>
  </g>
</svg>