<svg id="Layer_1" height="512" viewBox="0 0 24 24" width="512" xmlns="http://www.w3.org/2000/svg" data-name="Layer 1"><path d="m12 18.75a.75.75 0 0 1 -.75-.75v-7.25h-.25a.75.75 0 0 1 0-1.5h1a.75.75 0 0 1 .75.75v8a.75.75 0 0 1 -.75.75z"/><path d="m13.5 18.75h-3a.75.75 0 0 1 0-1.5h3a.75.75 0 0 1 0 1.5z"/><circle cx="12" cy="7" r="1.25"/><path d="m18 22.75h-12a4.756 4.756 0 0 1 -4.75-4.75v-12a4.756 4.756 0 0 1 4.75-4.75h12a4.756 4.756 0 0 1 4.75 4.75v12a4.756 4.756 0 0 1 -4.75 4.75zm-12-20a3.254 3.254 0 0 0 -3.25 3.25v12a3.254 3.254 0 0 0 3.25 3.25h12a3.254 3.254 0 0 0 3.25-3.25v-12a3.254 3.254 0 0 0 -3.25-3.25z"/></svg>