<svg id="Layer_1" height="512" viewBox="0 0 64 64" width="512" xmlns="http://www.w3.org/2000/svg" data-name="Layer 1"><path d="m45 46a2 2 0 0 1 -2-2 10.959 10.959 0 0 0 -8.365-10.678 2 2 0 0 1 -.307-3.783 6 6 0 1 0 -4.656 0 2 2 0 0 1 -.307 3.783 10.959 10.959 0 0 0 -8.365 10.678 2 2 0 0 1 -4 0 14.955 14.955 0 0 1 7.729-13.128 10 10 0 1 1 14.542 0 14.955 14.955 0 0 1 7.729 13.128 2 2 0 0 1 -2 2z"/><path d="m32 62a30 30 0 1 1 9.643-58.416 2 2 0 1 1 -1.286 3.787 25.969 25.969 0 1 0 16.272 16.272 2 2 0 1 1 3.787-1.286 30.02 30.02 0 0 1 -28.416 39.643z"/><path d="m52 20a2 2 0 0 1 -2-2v-3a2 2 0 0 1 2-2 3 3 0 1 0 -3-3 2 2 0 0 1 -4 0 7 7 0 1 1 9 6.709v1.291a2 2 0 0 1 -2 2z"/><path d="m52 26a2 2 0 0 1 -2-2v-1a2 2 0 0 1 4 0v1a2 2 0 0 1 -2 2z"/></svg>